<?xml version="1.0" encoding="utf-8"?>
<!-- Generator: Adobe Illustrator 18.1.1, SVG Export Plug-In . SVG Version: 6.00 Build 0)  -->
<svg version="1.1" id="Linkedin" xmlns="http://www.w3.org/2000/svg" xmlns:xlink="http://www.w3.org/1999/xlink" x="0px" y="0px"
	 width="758px" height="758px" viewBox="-129 -129 758 758" enable-background="new -129 -129 758 758" xml:space="preserve">
<g>
	<g id="linkedin-back">
		<circle fill="#0076B2" cx="250" cy="250" r="379"/>
	</g>
	<g id="linkedin-linkedin">
		<path fill="#FFFFFF" d="M113.6,202.1h58.1v186.7h-58.1V202.1z M142.6,109.3c18.6,0,33.6,15.1,33.6,33.6
			c0,18.6-15.1,33.6-33.6,33.6c-18.6,0-33.7-15.1-33.7-33.6C109,124.4,124,109.3,142.6,109.3"/>
		<path fill="#FFFFFF" d="M208.1,202.1h55.6v25.5h0.8c7.7-14.7,26.7-30.2,54.9-30.2c58.7,0,69.6,38.7,69.6,88.9v102.4h-58V298
			c0-21.6-0.4-49.5-30.2-49.5c-30.2,0-34.8,23.6-34.8,48v92.3h-58V202.1z"/>
	</g>
</g>
</svg>
