<svg xmlns="http://www.w3.org/2000/svg" viewBox="0 0 437.77 38.23"><defs><style>.cls-1{fill:#ffffff;}</style></defs><title>Asset 1</title><g id="Layer_2" data-name="Layer 2"><g id="Layer_1-2" data-name="Layer 1"><path class="cls-1" d="M437.77,35.64a2.15,2.15,0,1,1-4.22,0,2.15,2.15,0,1,1,4.22,0"/><path class="cls-1" d="M63.88,37.95H45.18V36.54h1c1.24,0,2-.61,2-2.16V3.94c0-1.55-.73-2.16-2-2.16h-1V.37H63.88V13.29H62.64v-.14C62.64,5.49,60.37,2,56.23,2H53.16V17.61h.78c2.34,0,3.44-2.3,3.44-7.14v-.14h1.24V26.58H57.37v-.09c0-4.74-1.05-7.19-3.44-7.19h-.78v17H56c4.1,0,6.6-4.09,6.6-11.09v-.14h1.24Z"/><path class="cls-1" d="M43.95,37.95H33V36.54h.92c1.24,0,2-.61,2-2.16V19.63h-8V34.38c0,1.56.78,2.16,2,2.16h1v1.41h-11V36.54h1c1.24,0,2-.61,2-2.16V3.94c0-1.55-.78-2.16-2-2.16h-1V.37h11V1.78h-1c-1.24,0-2,.61-2,2.16V17.61h8V3.94c0-1.55-.78-2.16-2-2.16H33V.37h11V1.78H43c-1.24,0-2,.61-2,2.16V34.38c0,1.56.78,2.16,2,2.16h1Z"/><path class="cls-1" d="M19.29,13.38H18.06v-.14C18.06,7.18,15.82,2,13.2,2H12.1V34.38c0,1.56.78,2.16,2,2.16h1.15v1.41H4V36.54H5c1.24,0,2-.61,2-2.16V2h-1C3.47,2,1.24,6.85,1.24,13.24v.14H0V.37H19.29Z"/><path class="cls-1" d="M157.16,37.95H138.69V36.54H140c1.24,0,2-.56,2-2.12V3.89c0-1.55-.78-2.11-2-2.11h-1V.37h10.91V1.78H149c-1.24,0-2,.56-2,2.11V36.31h2.7c4.94,0,6.23-5.78,6.23-11.14V25h1.24Z"/><path class="cls-1" d="M138,37.95H119.58l.73-1.41h.55c1.24,0,2-.56,2-2.12V3.89c0-1.55-.78-2.11-2-2.11h-1V.37h10.91V1.78h-.87c-1.24,0-2,.56-2,2.11V36.31h2.7c4.94,0,6.23-5.73,6.23-11.18V25H138Z"/><path class="cls-1" d="M104.92,1.78h-.37c-1.76,0-2.67.33-3.3,3.43l-6.69,33H92.5l-4.17-21.6h0L84,38.23H82L75.4,4.37c-.42-2.16-1-2.59-2.88-2.59h-.14V.37h9.94V1.78h-.18c-1.43,0-1.79.52-1.79,1.5a5.16,5.16,0,0,0,0,.84L84.57,27h.09L87.36,12,85.95,4.37c-.36-1.88-.77-2.59-2.24-2.59h-.23V.37h9.81V1.78h-.18c-1.83,0-2.2.63-2.2,1.92A6.68,6.68,0,0,0,91,4.88L95.2,26.77h.09L99.23,4.84a5.21,5.21,0,0,0,.09-.89c0-1.5-.49-2.16-2.43-2.16h-.27V.37h8.29Z"/><path class="cls-1" d="M120.45,37.95H110V36.54h.27c1.9,0,2.47-.52,2.47-1.6a7.32,7.32,0,0,0-.14-1.13l-.87-5h-6.23l-.87,5a6.72,6.72,0,0,0-.14,1.13c0,1.16.45,1.6,2.34,1.6h.18v1.41H99.23V36.54h.41c1.61,0,2.52-.38,2.93-2.58l6.37-34h2.34l6.55,33.81c.39,2,1.42,2.73,2.29,2.73h.32Zm-9-10.85-2.75-16.63h-.09L105.83,27.1Z"/><path class="cls-1" d="M286.8,13.38h-1.24v-.14C285.56,7.18,283.33,2,280.7,2h-1.1V34.38c0,1.56.78,2.16,2,2.16h1.14v1.41H271.49V36.54h1.05c1.24,0,2-.61,2-2.16V2h-1c-2.62,0-4.86,4.83-4.86,11.22v.14h-1.24V.37H286.8Z"/><path class="cls-1" d="M265.9,37.95h-18.7V36.54h1c1.24,0,2-.61,2-2.16V3.94c0-1.55-.73-2.16-2-2.16h-1V.37H265.9V13.29h-1.24v-.14C264.67,5.49,262.4,2,258.25,2h-3.07V17.61H256c2.33,0,3.44-2.3,3.44-7.14v-.14h1.24V26.58H259.4v-.09c0-4.74-1.06-7.19-3.44-7.19h-.78v17h2.89c4.1,0,6.6-4.09,6.6-11.09v-.14h1.24Z"/><path class="cls-1" d="M245.92,37.95h-18.7V36.54h1c1.24,0,2-.61,2-2.16V3.94c0-1.55-.73-2.16-2-2.16h-1V.37h18.74V13.29h-1.24v-.14c0-7.65-2.27-11.13-6.42-11.13H235.2V17.61H236c2.33,0,3.44-2.3,3.44-7.14v-.14h1.24V26.58h-1.24v-.09c0-4.74-1.06-7.19-3.44-7.19h-.78v17h2.89c4.1,0,6.6-4.09,6.6-11.09v-.14h1.24Z"/><path class="cls-1" d="M203.72,13.38h-1.24v-.14c0-6.06-2.24-11.22-4.86-11.22h-1.1V34.38c0,1.56.78,2.16,2,2.16h1.15v1.41H188.41V36.54h1.06c1.24,0,2-.61,2-2.16V2h-1c-2.62,0-4.86,4.83-4.86,11.22v.14h-1.24V.37h19.29Z"/><path class="cls-1" d="M184.38,28.83c0,6.65-3.93,9.39-8.52,9.39A9.68,9.68,0,0,1,169.4,36l-.87,2h-1V25h1.24v.38c0,9.06,4.45,11.13,6.69,11.13,3.4,0,4.91-2,4.91-6,0-4.32-2.65-7.47-6.46-10.43-3.46-2.68-6.64-6-6.64-11.46,0-5.66,3.4-8.6,7.47-8.6a7.94,7.94,0,0,1,5.86,2.21l.92-1.83h.92v13h-1.24v-.37c0-7-2.06-11.27-6.14-11.27-2.58,0-3.94,1.87-3.94,4.84,0,3.53,2,5.54,5.82,8.55,4.2,3.33,7.43,6.84,7.43,13.66"/><path class="cls-1" d="M226.91,32.82c0,3.15-1.16,5.4-4.17,5.4s-4.28-2.28-4.49-6.95l-.32-7c-.17-3.7-1.55-4.69-3.62-4.69H213V34.38c0,1.55.6,2.16,1.83,2.16h1.28v1.41H204.91V36.54H206c1.24,0,2-.61,2-2.16V3.94c0-1.55-.78-2.16-2-2.16h-1.05V.37h10c6.06,0,9.85,3.18,9.85,9.11,0,6.2-4.21,8.55-7.93,9.3v.09a6.58,6.58,0,0,1,6,6.2l.41,8.22c.08,1.63.28,2.12,1,2.12.92,0,1.1-.71,1.1-3.15V30.9h1.52ZM219.53,9.58c0-5.87-2.26-7.56-5.36-7.56H213V17.85h1.38c3.23,0,5.18-2.25,5.18-8.27"/><path class="cls-1" d="M431.39,37.95H412.93l.73-1.41h.55c1.24,0,2-.56,2-2.12V3.9c0-1.55-.78-2.12-2-2.12h-1V.37h10.91V1.78h-.87c-1.24,0-2,.57-2,2.12V36.31h2.7c4.94,0,6.23-5.73,6.23-11.14V25h1.24Z"/><path class="cls-1" d="M394.46,1.78h-1c-1.14,0-2.06.89-2.06,2.72V38.09h-1.79L378.19,8.5h-.09V33.81c0,1.84.91,2.73,2.06,2.73h.92v1.41h-7.75V36.54h1.06c1.15,0,2.06-.89,2.06-2.73V4.13c0-1.32-.5-2.35-1.79-2.35h-1.33V.37h7.06l9.3,24.19h.09V4.51c0-1.85-.92-2.72-2.06-2.72h-1V.37h7.7Z"/><path class="cls-1" d="M352.35,1.78h-1.92c-1.15,0-1.83,1-1.83,2.72v25c0,5-1.62,8.68-6.88,8.68-5.58,0-8.85-3.51-8.85-8.68V3.94c0-1.55-.73-2.16-2-2.16h-1V.37h10.72V1.78h-.69c-1.24,0-2,.61-2,2.16V29.87c0,4.24,1.63,6.67,4.4,6.67s4.54-2.06,4.54-6.67V4.51c0-1.74-.64-2.72-1.79-2.72H344V.37h8.3Z"/><path class="cls-1" d="M310.92,1.78H310c-1.24,0-2,.61-2,2.16V30.15c0,5.88-3.6,8.08-8.2,8.08-3.29,0-6.6-2.76-6.6-8.08,0-2.86,1.73-4.08,3.11-4.08s2.48,1,2.48,2.82a3.17,3.17,0,0,1-3,3.48,4.09,4.09,0,0,0,3.94,4.18c2.39,0,3.21-1.35,3.21-5.4V3.94c0-1.55-.73-2.16-2-2.16h-1V.37h10.91Z"/><path class="cls-1" d="M413.8,37.95h-10.4V36.54h.28c1.9,0,2.47-.52,2.47-1.6a7.07,7.07,0,0,0-.14-1.13l-.87-5H398.9l-.87,5a6.72,6.72,0,0,0-.14,1.13c0,1.16.44,1.6,2.34,1.6h.18v1.41h-7.84V36.54H393c1.6,0,2.52-.38,2.94-2.58l6.37-34h2.34l6.56,33.81c.39,2,1.42,2.73,2.29,2.73h.32Zm-9-10.85L402,10.47h-.09L399.18,27.1Z"/><path class="cls-1" d="M373.24,32.82c0,3.15-1.17,5.4-4.17,5.4s-4.28-2.28-4.49-6.95l-.32-7c-.17-3.72-1.55-4.69-3.62-4.69h-1.33V34.38c0,1.55.59,2.16,1.84,2.16h1.28v1.41H351.25V36.54h1.06c1.24,0,2-.61,2-2.16V3.94c0-1.55-.78-2.16-2-2.16h-1.06V.37h10c6.06,0,9.85,3.18,9.85,9.11,0,6.2-4.21,8.55-7.93,9.3v.09a6.56,6.56,0,0,1,6,6.2l.41,8.22c.08,1.64.28,2.12,1,2.12.92,0,1.1-.71,1.1-3.15V30.9h1.52ZM365.86,9.58c0-5.87-2.26-7.56-5.36-7.56h-1.19V17.85h1.38c3.23,0,5.18-2.25,5.18-8.27"/><path class="cls-1" d="M330,19.07c0,10.67-3.41,19.16-9.67,19.16s-9.53-8.49-9.53-19.16,3.28-19,9.53-19,9.67,8.29,9.67,19M324.3,28V10.24c0-6.49-1.41-8.45-4-8.45s-3.9,1.87-3.9,8.55V27.94c0,6.26,1.18,8.6,3.9,8.6s4-2.48,4-8.55"/></g></g></svg>