<?xml version="1.0" encoding="utf-8"?>
<!-- Generator: Adobe Illustrator 18.1.1, SVG Export Plug-In . SVG Version: 6.00 Build 0)  -->
<svg version="1.1" xmlns="http://www.w3.org/2000/svg" xmlns:xlink="http://www.w3.org/1999/xlink" x="0px" y="0px" width="540px"
	 height="800px" viewBox="-35 -4 540 800" enable-background="new -35 -4 540 800" xml:space="preserve">
<g id="Layer_2_3_" display="none">
	<rect x="-180" y="-145" display="inline" fill="#00FF00" width="827" height="1122"/>
</g>
<g id="Layer_1">
	<path fill="#FFFFFF" d="M8,185c-10.5,0-19,8.5-19,19s8.5,19,19,19s19-8.5,19-19S18.5,185,8,185z"/>
	<path fill="#FFFFFF" d="M55,185c-10.5,0-19,8.5-19,19s8.5,19,19,19s19-8.5,19-19S65.5,185,55,185z"/>
	<g id="Layer_2_2_" display="none">
		<rect x="-522" y="-61" display="inline" fill="#2CFF00" width="614" height="872"/>
	</g>
	<g id="Layer_2_1_" display="none">
		<rect x="-849" y="-53" display="inline" fill="#0DFF00" width="590" height="858"/>
	</g>
	<g id="Layer_2" display="none">
		<rect x="-425.7" y="11" display="inline" fill="#0DFF00" width="576" height="835"/>
	</g>
	<circle fill="#FFFFFF" cx="103.9" cy="155" r="17.3"/>
	<circle fill="#FFFFFF" cx="154" cy="155" r="17.3"/>
	<circle fill="#BCD0D8" cx="103.9" cy="105.3" r="17.3"/>
	<circle fill="#BCD0D8" cx="154" cy="105.3" r="17.3"/>
	<path fill="none" stroke="#BCD0D8" stroke-width="2" d="M0,161.9l16-15.8 M0.1,146l15.8,16"/>
	<g>
		<line fill="none" stroke="#BCD0D8" stroke-width="2" x1="35" y1="146" x2="55" y2="146"/>
		<line fill="none" stroke="#BCD0D8" stroke-width="2" x1="35" y1="154" x2="55" y2="154"/>
		<line fill="none" stroke="#BCD0D8" stroke-width="2" x1="35" y1="162" x2="55" y2="162"/>
	</g>
	<path fill="#FFFFFF" d="M10,116c8.3,0,15-6.7,15-15s-6.7-15-15-15s-15,6.7-15,15S1.8,116,10,116"/>
	<polyline fill="none" stroke="#BCD0D8" stroke-width="1.404" points="4.5,98.1 10,93.1 15.6,98.1 	"/>
	<line fill="none" stroke="#BCD0D8" stroke-width="1.404" x1="10" y1="93.2" x2="10" y2="109.5"/>
	<path fill="#333333" d="M-22.9,329.9v3.6h3.5v0.9h-3.5v3.7h-1v-3.7h-3.5v-0.9h3.5v-3.6H-22.9z"/>
	<path fill="#333333" d="M-27.4,400.4v-0.9h8v0.9H-27.4z"/>
	<polygon fill="#AFAFAF" points="387,351.4 375,360.4 375,342.4 	"/>
	<polygon fill="#4D4D4D" points="417,351.4 405,360.4 405,342.4 	"/>
	<g>
		<rect x="345" y="-4" fill="none" width="160" height="100"/>
		<polygon fill="#FFFFFF" points="437,46 419,56 419,36 		"/>
	</g>
	<g>
		
			<rect x="-10.7" y="45.5" transform="matrix(-0.7071 -0.7071 0.7071 -0.7071 -15.448 85.6043)" fill="#BCD0D8" width="41.4" height="1"/>
		
			<rect x="9.5" y="25.3" transform="matrix(-0.7071 -0.7071 0.7071 -0.7071 -15.4472 85.6041)" fill="#BCD0D8" width="1" height="41.4"/>
	</g>
	<g>
		
			<rect x="29.3" y="45.5" transform="matrix(-0.7071 -0.7071 0.7071 -0.7071 52.8345 113.887)" fill="#FFFFFF" width="41.4" height="1"/>
		
			<rect x="49.5" y="25.3" transform="matrix(-0.7071 -0.7071 0.7071 -0.7071 52.8338 113.8861)" fill="#FFFFFF" width="1" height="41.4"/>
	</g>
	<path fill="#BCD0D8" d="M104,136c-10.5,0-19,8.5-19,19s8.5,19,19,19s19-8.5,19-19S114.5,136,104,136z M110.5,146.6h-2.6
		c-2,0-2.4,1-2.4,2.3v3.1h4.8l-0.6,4.9h-4.1v12.4h-4.9v-12.4h-4.1V152h4.1v-3.6c0-4.1,2.5-6.4,6.2-6.4c1.8,0,3.3,0.2,3.7,0.2
		L110.5,146.6L110.5,146.6z"/>
	<path fill="#BCD0D8" d="M154,136c-10.5,0-19,8.5-19,19s8.5,19,19,19s19-8.5,19-19C173.1,144.5,164.5,136,154,136z M164.3,151.8
		c0,0.2,0,0.4,0,0.6c0,6.6-5,14.2-14.2,14.2c-2.8,0-5.4-0.8-7.7-2.3c0.4,0.1,0.8,0.1,1.2,0.1c2.3,0,4.5-0.8,6.2-2.1
		c-2.2-0.1-4-1.5-4.7-3.5c0.3,0.1,0.6,0.1,1,0.1c0.5,0,0.9-0.1,1.3-0.2c-2.3-0.5-4-2.5-4-4.9v-0.1c0.6,0.4,1.5,0.6,2.3,0.6
		c-1.4-0.9-2.3-2.4-2.3-4.1c0-0.9,0.2-1.8,0.6-2.5c2.5,3,6.1,5,10.3,5.3c-0.1-0.4-0.2-0.7-0.2-1.1c0-2.7,2.3-5,5-5
		c1.5,0,2.7,0.6,3.6,1.6c1.1-0.2,2.2-0.6,3.2-1.2c-0.4,1.1-1.1,2.2-2.2,2.7c1.1-0.1,1.9-0.4,2.9-0.8
		C166.2,150.1,165.4,151,164.3,151.8z"/>
	<path fill="#FFFFFF" d="M104,86c-10.5,0-19,8.5-19,19s8.5,19,19,19s19-8.5,19-19S114.5,86,104,86z M110.5,96.7h-2.6
		c-2,0-2.4,1-2.4,2.3v3.1h4.8l-0.6,4.9h-4.1v12.4h-4.9V107h-4.1v-4.9h4.1v-3.6c0-4.1,2.5-6.4,6.2-6.4c1.8,0,3.3,0.2,3.7,0.2
		L110.5,96.7L110.5,96.7z"/>
	<path fill="#FFFFFF" d="M154,86c-10.5,0-19,8.5-19,19s8.5,19,19,19s19-8.5,19-19C173.1,94.5,164.5,86,154,86z M164.3,101.8
		c0,0.2,0,0.4,0,0.6c0,6.6-5,14.2-14.2,14.2c-2.8,0-5.4-0.8-7.7-2.3c0.4,0.1,0.8,0.1,1.2,0.1c2.3,0,4.5-0.8,6.2-2.1
		c-2.2-0.1-4-1.5-4.7-3.5c0.3,0.1,0.6,0.1,1,0.1c0.5,0,0.9-0.1,1.3-0.2c-2.3-0.5-4-2.5-4-4.9v-0.1c0.6,0.4,1.5,0.6,2.3,0.6
		c-1.4-0.9-2.3-2.4-2.3-4.1c0-0.9,0.2-1.8,0.6-2.5c2.5,3,6.1,5,10.3,5.3c-0.1-0.4-0.2-0.7-0.2-1.1c0-2.7,2.3-5,5-5
		c1.5,0,2.7,0.6,3.6,1.6c1.1-0.2,2.2-0.6,3.2-1.2c-0.4,1.1-1.1,2.2-2.2,2.7c1.1-0.1,1.9-0.4,2.9-0.8
		C166.2,100.2,165.4,101.1,164.3,101.8z"/>
	<path fill="#22B9CD" d="M204,136c-10.5,0-19,8.5-19,19s8.5,19,19,19s19-8.5,19-19S214.5,136,204,136z M210.5,146.6h-2.6
		c-2,0-2.4,1-2.4,2.3v3.1h4.8l-0.6,4.9h-4.1v12.4h-4.9v-12.4h-4.1V152h4.1v-3.6c0-4.1,2.5-6.4,6.2-6.4c1.8,0,3.3,0.2,3.7,0.2
		L210.5,146.6L210.5,146.6z"/>
	<path fill="#22B9CD" d="M254,136c-10.5,0-19,8.5-19,19s8.5,19,19,19s19-8.5,19-19C273.1,144.5,264.5,136,254,136z M264.3,151.8
		c0,0.2,0,0.4,0,0.6c0,6.6-5,14.2-14.2,14.2c-2.8,0-5.4-0.8-7.7-2.3c0.4,0.1,0.8,0.1,1.2,0.1c2.3,0,4.5-0.8,6.2-2.1
		c-2.2-0.1-4-1.5-4.7-3.5c0.3,0.1,0.6,0.1,1,0.1c0.5,0,0.9-0.1,1.3-0.2c-2.3-0.5-4-2.5-4-4.9v-0.1c0.6,0.4,1.5,0.6,2.3,0.6
		c-1.4-0.9-2.3-2.4-2.3-4.1c0-0.9,0.2-1.8,0.6-2.5c2.5,3,6.1,5,10.3,5.3c-0.1-0.4-0.2-0.7-0.2-1.1c0-2.7,2.3-5,5-5
		c1.5,0,2.7,0.6,3.6,1.6c1.1-0.2,2.2-0.6,3.2-1.2c-0.4,1.1-1.1,2.2-2.2,2.7c1.1-0.1,1.9-0.4,2.9-0.8
		C266.2,150.1,265.4,151,264.3,151.8z"/>
	<path fill="#FFFFFF" d="M204,86c-10.5,0-19,8.5-19,19s8.5,19,19,19s19-8.5,19-19S214.5,86,204,86z"/>
	<path fill="#FFFFFF" d="M254,86c-10.5,0-19,8.5-19,19s8.5,19,19,19s19-8.5,19-19C273.1,94.5,264.5,86,254,86z"/>
	<g>
		<g>
			<path d="M-10.5,10.7h-7.2v-0.6h0.4c0.5,0,0.8-0.2,0.8-0.9V-2.5c0-0.6-0.3-0.9-0.8-0.9h-0.4V-4h7.3v5h-0.5V0.9
				c0-2.9-0.9-4.3-2.5-4.3h-1.2v6h0.3c0.9,0,1.4-0.9,1.4-2.7v-0.1h0.5v6.3h-0.5l0,0c0-1.8-0.4-2.8-1.4-2.8h-0.3v6.6h1.1
				c1.5,0,2.5-1.5,2.5-4.3l0,0h0.5V10.7L-10.5,10.7z"/>
			<path d="M-18.2,10.7h-4.3v-0.6h0.4c0.5,0,0.8-0.2,0.8-0.9V3.6h-3.1v5.7c0,0.6,0.3,0.9,0.8,0.9h0.4v0.6h-4.3v-0.6h0.4
				c0.5,0,0.8-0.2,0.8-0.9V-2.5c0-0.6-0.3-0.9-0.8-0.9h-0.4V-4h4.3v0.6h-0.4c-0.5,0-0.8,0.2-0.8,0.9v5.2h3.1v-5.2
				c0-0.6-0.3-0.9-0.8-0.9h-0.4V-4h4.3v0.6h-0.4c-0.5,0-0.8,0.2-0.8,0.9V9.3c0,0.6,0.3,0.9,0.8,0.9h0.4V10.7z"/>
			<path d="M-27.6,1.2h-0.5V1.1c0-2.3-0.9-4.4-1.8-4.4h-0.4V9.3c0,0.6,0.3,0.9,0.8,0.9h0.5v0.6h-4.4v-0.6h0.4c0.5,0,0.8-0.2,0.8-0.9
				V-3.2h-0.4c-1,0-1.8,1.8-1.8,4.4v0.1H-35v-5h7.5v4.9C-27.5,1.2-27.6,1.2-27.6,1.2z"/>
			<path d="M25.4,10.7h-7.1v-0.6h0.5c0.5,0,0.8-0.2,0.8-0.8V-2.4c0-0.6-0.3-0.8-0.8-0.8h-0.4v-0.6h4.2v0.6h-0.3
				c-0.5,0-0.8,0.2-0.8,0.8v12.5h1.1c1.9,0,2.4-2.2,2.4-4.3l0,0h0.5L25.4,10.7L25.4,10.7z"/>
			<path d="M18.1,10.7H11l0.3-0.6h0.2c0.5,0,0.8-0.2,0.8-0.8V-2.4c0-0.6-0.3-0.8-0.8-0.8h-0.4v-0.6h4.2v0.6H15
				c-0.5,0-0.8,0.2-0.8,0.8v12.5h1.1c1.9,0,2.4-2.2,2.4-4.3l0,0h0.5L18.1,10.7L18.1,10.7z"/>
			<path d="M5.3-3.2L5.3-3.2c-0.8,0-1.2,0.1-1.4,1.4L1.3,10.9H0.5l-1.6-8.3l0,0l-1.6,8.3h-0.8L-6.1-2.3c-0.2-0.9-0.4-1-1.1-1h-0.1
				v-0.6h3.9v0.6h-0.1c-0.6,0-0.7,0.2-0.7,0.6c0,0.1,0,0.2,0,0.3l1.6,8.8l0,0l1.1-5.8l-0.6-2.9c-0.1-0.7-0.3-1-0.9-1h-0.1v-0.6h3.8
				v0.6H0.6c-0.7,0-0.9,0.3-0.9,0.8c0,0.1,0,0.3,0.1,0.5l1.6,8.4l0,0L2.9-2c0-0.1,0-0.2,0-0.4c0-0.6-0.2-0.9-1-0.9H1.8v-0.6H5
				L5.3-3.2L5.3-3.2z"/>
			<path d="M11.3,10.7h-4v-0.6h0.1c0.8,0,1-0.2,1-0.6c0-0.1,0-0.3-0.1-0.4L8,7.2H5.6L5.3,9.1c0,0.2-0.1,0.3-0.1,0.4
				c0,0.5,0.2,0.6,0.9,0.6h0.1v0.6h-3v-0.6h0.2c0.6,0,1-0.2,1.2-1L7-4h0.9l2.5,13c0.2,0.8,0.6,1.1,0.9,1.1h0.1L11.3,10.7
				C11.4,10.7,11.3,10.7,11.3,10.7z M7.8,6.5L6.7,0.1l0,0L5.6,6.5H7.8z"/>
			<path d="M75.3,1.2h-0.5V1.1c0-2.3-0.9-4.4-1.8-4.4h-0.4V9.3c0,0.6,0.3,0.9,0.8,0.9h0.5v0.6h-4.4v-0.6h0.4c0.5,0,0.8-0.2,0.8-0.9
				V-3.2h-0.4c-1,0-1.8,1.8-1.8,4.4v0.1H68v-5h7.5L75.3,1.2L75.3,1.2z"/>
			<path d="M67.2,10.7H60v-0.6h0.4c0.5,0,0.8-0.2,0.8-0.9V-2.5c0-0.6-0.3-0.9-0.8-0.9H60V-4h7.3v5h-0.5V0.9c0-2.9-0.9-4.3-2.5-4.3
				h-1.2v6h0.3c0.9,0,1.4-0.9,1.4-2.7v-0.1h0.5v6.3h-0.5l0,0c0-1.8-0.4-2.8-1.4-2.8h-0.3v6.6h1.1c1.5,0,2.5-1.5,2.5-4.3l0,0h0.5
				L67.2,10.7L67.2,10.7z"/>
			<path d="M59.6,10.7h-7.2v-0.6h0.4c0.5,0,0.8-0.2,0.8-0.9V-2.5c0-0.6-0.3-0.9-0.8-0.9h-0.4V-4h7.2v5h-0.5V0.9
				c0-2.9-0.9-4.3-2.4-4.3h-1.2v6h0.3c0.9,0,1.4-0.9,1.4-2.7v-0.1h0.5v6.3h-0.5l0,0c0-1.8-0.4-2.8-1.4-2.8h-0.3v6.6h1.1
				c1.5,0,2.5-1.5,2.5-4.3l0,0h0.5L59.6,10.7L59.6,10.7z"/>
			<path d="M43.3,1.2h-0.5V1.1c0-2.3-0.9-4.4-1.8-4.4h-0.4V9.3c0,0.6,0.3,0.9,0.8,0.9h0.5v0.6h-4.4v-0.6h0.4c0.5,0,0.8-0.2,0.8-0.9
				V-3.2h-0.4c-1,0-1.8,1.8-1.8,4.4v0.1H36v-5h7.5L43.3,1.2L43.3,1.2z"/>
			<path d="M35.9,7.1c0,2.5-1.5,3.6-3.3,3.6c-1.3,0-1.8-0.4-2.5-0.9l-0.3,0.8h-0.4V5.7h0.5v0.1c0,3.5,1.7,4.3,2.6,4.3
				c1.4,0,1.8-0.8,1.8-2.3c0-1.6-1.1-2.9-2.5-4s-2.5-2.3-2.5-4.5S30.7-4,32.2-4c1.3,0,1.9,0.6,2.2,0.9l0.4-0.7h0.4v5h-0.6V1
				c0-2.7-0.8-4.4-2.3-4.4c-1,0-1.5,0.7-1.5,1.8c0,1.4,0.8,2.1,2.2,3.3C34.6,3.2,35.9,4.5,35.9,7.1"/>
			<path d="M52.2,8.7c0,1.3-0.5,2-1.6,2S49,9.8,48.9,8l-0.1-2.7c-0.1-1.5-0.6-1.8-1.4-1.8h-0.5v5.7c0,0.6,0.2,0.9,0.7,0.9h0.5v0.6
				h-4.3V10h0.4c0.5,0,0.8-0.2,0.8-0.9V-2.5c0-0.6-0.3-0.9-0.8-0.9h-0.4V-4h3.9c2.3,0,3.8,1.3,3.8,3.5c0,2.4-1.6,3.3-3.1,3.6l0,0
				c1.2,0.1,2.2,1.1,2.3,2.4l0.2,3.2c0,0.6,0.1,0.8,0.4,0.8c0.4,0,0.4-0.3,0.4-1.3V7.7h0.6L52.2,8.7L52.2,8.7z M49.4-0.2
				c0-2.2-0.9-2.9-2-2.9h-0.5V3h0.5C48.7,3,49.4,2.1,49.4-0.2"/>
			<path d="M131,10.7h-7.1l0.3-0.6h0.2c0.5,0,0.8-0.2,0.8-0.8V-2.4c0-0.6-0.3-0.8-0.8-0.8H124v-0.6h4.2v0.6h-0.3
				c-0.5,0-0.8,0.2-0.8,0.8v12.5h1.1c1.9,0,2.4-2.2,2.4-4.3l0,0h0.5L131,10.7L131,10.7z"/>
			<path d="M133.4,9.7c0,0.6-0.4,1-0.8,1s-0.8-0.5-0.8-1c0-0.6,0.4-1,0.8-1S133.4,9.3,133.4,9.7"/>
			<path d="M116.7-3.2h-0.4c-0.5,0-0.8,0.4-0.8,1.1v13h-0.7l-4.5-11.4l0,0v9.8c0,0.7,0.4,1.1,0.8,1.1h0.4V11h-3v-0.6h0.4
				c0.5,0,0.8-0.4,0.8-1.1V-2.4c0-0.5-0.2-0.9-0.7-0.9h-0.5v-0.6h2.7l3.6,9.3l0,0v-7.7c0-0.7-0.4-1.1-0.8-1.1h-0.4V-4h3L116.7-3.2
				L116.7-3.2z"/>
			<path d="M100.6-3.2h-0.8c-0.5,0-0.7,0.4-0.7,1.1v9.7c0,1.9-0.6,3.4-2.6,3.4c-2.1,0-3.4-1.4-3.4-3.4v-9.9c0-0.6-0.3-0.9-0.8-0.9
				h-0.4v-0.6h4.2v0.6h-0.3C95.3-3.2,95-3,95-2.3v10c0,1.6,0.6,2.6,1.6,2.6c1.1,0,1.7-0.8,1.7-2.6v-9.8c0-0.7-0.3-1.1-0.7-1.1h-0.4
				v-0.6h3.2L100.6-3.2L100.6-3.2z"/>
			<path d="M84.6-3.2h-0.4c-0.5,0-0.8,0.2-0.8,0.9v10c0,2.2-1.4,3.1-3.2,3.1c-1.3,0-2.5-1.1-2.5-3.1c0-1.1,0.7-1.5,1.2-1.5
				c0.6,0,1,0.4,1,1.1c0,0.9-0.5,1.3-1.2,1.4c0,0.8,0.6,1.6,1.5,1.6s1.3-0.5,1.3-2V-2.3c0-0.6-0.3-0.9-0.8-0.9h-0.4v-0.6h4.2
				L84.6-3.2L84.6-3.2z"/>
			<path d="M124.2,10.7h-4v-0.6h0.1c0.8,0,1-0.2,1-0.6c0-0.1,0-0.3-0.1-0.4l-0.3-1.9h-2.4l-0.3,1.9c0,0.2-0.1,0.3-0.1,0.4
				c0,0.5,0.2,0.6,0.9,0.6h0.1v0.6h-3v-0.6h0.2c0.6,0,1-0.2,1.2-1L119.9-4h0.9l2.5,13c0.2,0.8,0.6,1.1,0.9,1.1h0.1L124.2,10.7
				L124.2,10.7z M120.7,6.5l-1.1-6.4l0,0l-1.1,6.4H120.7z"/>
			<path d="M108.6,8.7c0,1.3-0.5,2-1.6,2s-1.6-0.9-1.7-2.7l-0.1-2.7c-0.1-1.5-0.6-1.8-1.4-1.8h-0.5v5.7c0,0.6,0.2,0.9,0.7,0.9h0.5
				v0.6h-4.3V10h0.4c0.5,0,0.8-0.2,0.8-0.9V-2.5c0-0.6-0.3-0.9-0.8-0.9h-0.4V-4h3.9c2.3,0,3.8,1.3,3.8,3.5c0,2.4-1.6,3.3-3.1,3.6
				l0,0c1.2,0.1,2.2,1,2.3,2.4l0.2,3.2c0,0.7,0.1,0.8,0.4,0.8c0.4,0,0.4-0.3,0.4-1.3V7.7h0.6L108.6,8.7L108.6,8.7z M105.7-0.2
				c0-2.2-0.9-2.9-2-2.9h-0.5V3h0.5C105,3,105.7,2.1,105.7-0.2"/>
			<path d="M91.9,3.4c0,4.1-1.4,7.4-3.7,7.4s-3.7-3.3-3.7-7.4s1.3-7.3,3.7-7.3S91.9-0.7,91.9,3.4 M89.7,6.8V0c0-2.5-0.6-3.3-1.5-3.3
				c-1,0-1.5,0.7-1.5,3.3v6.8c0,2.4,0.5,3.3,1.5,3.3S89.7,9.2,89.7,6.8"/>
		</g>
		<g>
			<g>
				<g>
					<g>
						<g>
							<g>
								<g>
									<g>
										<g>
											<g>
												<defs>
													<rect id="SVGID_1_" x="161.4" y="-4" width="113.5" height="17.1"/>
												</defs>
												<clipPath id="SVGID_2_">
													<use xlink:href="#SVGID_1_"  overflow="visible"/>
												</clipPath>
												<polyline clip-path="url(#SVGID_2_)" fill="#271F10" points="206.3,9.8 202.5,9.8 200.2,-0.5 197.7,9.8 194.1,9.8 
													190.7,-3.7 193.7,-3.7 195.9,6.2 198.3,-3.7 202,-3.7 204.3,6.2 206.5,-3.7 209.6,-3.7 206.3,9.8 												"/>
											</g>
										</g>
									</g>
								</g>
							</g>
						</g>
					</g>
				</g>
			</g>
			<g>
				<g>
					<g>
						<g>
							<g>
								<g>
									<g>
										<g>
											<g>
												<defs>
													<rect id="SVGID_3_" x="161.4" y="-4" width="113.5" height="17.1"/>
												</defs>
												<clipPath id="SVGID_4_">
													<use xlink:href="#SVGID_3_"  overflow="visible"/>
												</clipPath>
												<path clip-path="url(#SVGID_4_)" fill="#271F10" d="M215.6,12.2c0.4-0.5,1.3-2.3,1.3-3.9s0-12,0-12h3c0,0,0,10.4,0,12.5
													c0,2.4-1,3.1-1.7,4.4L215.6,12.2"/>
											</g>
										</g>
									</g>
								</g>
							</g>
						</g>
					</g>
				</g>
			</g>
			<g>
				<g>
					<g>
						<g>
							<g>
								<g>
									<g>
										<g>
											<g>
												<defs>
													<rect id="SVGID_5_" x="161.4" y="-4" width="113.5" height="17.1"/>
												</defs>
												<clipPath id="SVGID_6_">
													<use xlink:href="#SVGID_5_"  overflow="visible"/>
												</clipPath>
												<path clip-path="url(#SVGID_6_)" fill="#271F10" d="M269.8,10.1c-1.5,0-3.5-0.4-4.6-1l0.6-2.7c1.2,0.6,2.7,1,3.7,1
													c1.5,0,2.2-0.6,2.2-1.4c0-0.6-0.8-1.2-2.9-2.1c-2.3-1.1-3.5-2.3-3.5-4.1c0-2.2,1.5-4,5-4c1.3,0,2.8,0.3,4.2,0.8
													l-0.6,2.8c-1-0.4-2-0.8-3.4-0.8c-1.3,0-2.1,0.5-2.1,1.4c0,0.6,0.8,1.2,2.5,1.9c2.7,1.2,3.8,2.5,3.8,4.3
													C274.8,8.5,273,10.1,269.8,10.1"/>
											</g>
										</g>
									</g>
								</g>
							</g>
						</g>
					</g>
				</g>
			</g>
			<g>
				<g>
					<g>
						<g>
							<g>
								<g>
									<g>
										<g>
											<g>
												<defs>
													<rect id="SVGID_7_" x="161.4" y="-4" width="113.5" height="17.1"/>
												</defs>
												<clipPath id="SVGID_8_">
													<use xlink:href="#SVGID_7_"  overflow="visible"/>
												</clipPath>
												<path clip-path="url(#SVGID_8_)" fill="#271F10" d="M189.1,0.4c-0.7-2-2.7-4.3-6.4-4.3s-5.7,2.3-6.4,4.3
													c-0.6,1.7-0.5,4,0,5.5c0.8,2.4,3.1,4.4,6.4,4.4c3.3,0,5.6-1.9,6.4-4.4C189.6,4.3,189.7,2.1,189.1,0.4 M186.1,5.3
													c-0.6,1.5-1.7,2.3-3.3,2.3s-2.7-0.8-3.3-2.3s-0.6-3.3,0-4.5c0.6-1.3,1.6-2.1,3.3-2.1c1.6,0,2.6,0.9,3.3,2.1
													C186.6,2,186.6,3.8,186.1,5.3z"/>
											</g>
										</g>
									</g>
								</g>
							</g>
						</g>
					</g>
				</g>
			</g>
			<g>
				<g>
					<g>
						<g>
							<g>
								<g>
									<g>
										<g>
											<g>
												<defs>
													<rect id="SVGID_9_" x="161.4" y="-4" width="113.5" height="17.1"/>
												</defs>
												<clipPath id="SVGID_10_">
													<use xlink:href="#SVGID_9_"  overflow="visible"/>
												</clipPath>
												<path clip-path="url(#SVGID_10_)" fill="#271F10" d="M167.5-3.7c3.2,0,5,1.9,5.6,3.8c0.7,1.8,0.9,4.1,0,6.2
													s-2.7,3.7-5.4,3.7h-6.3V-3.6L167.5-3.7 M164.4,7.2h2.7c1.6,0,2.5-1,3.1-2.1c0.5-1.1,0.6-2.8,0.1-4.1s-1.5-2.1-3.1-2.1
													h-2.8V7.2z"/>
											</g>
										</g>
									</g>
								</g>
							</g>
						</g>
					</g>
				</g>
			</g>
			<g>
				<g>
					<g>
						<g>
							<g>
								<g>
									<g>
										<g>
											<g>
												<defs>
													<rect id="SVGID_11_" x="161.4" y="-4" width="113.5" height="17.1"/>
												</defs>
												<clipPath id="SVGID_12_">
													<use xlink:href="#SVGID_11_"  overflow="visible"/>
												</clipPath>
												<path clip-path="url(#SVGID_12_)" fill="#271F10" d="M233.1,3.3c0,0.7-0.2,1.5-0.4,2c-0.6,1.5-1.7,2.3-3.3,2.3
													c-1.2,0-2-0.4-2.7-1.2c-1,0.6-1.7,1.1-2.5,1.6c1.2,1.4,2.9,2.2,5.2,2.2c3.3,0,5.6-1.9,6.4-4.4c0.3-1.1,0.5-2.4,0.3-3.8
													C235,2.5,234,2.9,233.1,3.3"/>
											</g>
										</g>
									</g>
								</g>
							</g>
						</g>
					</g>
				</g>
			</g>
			<g>
				<g>
					<g>
						<g>
							<g>
								<g>
									<g>
										<g>
											<g>
												<defs>
													<rect id="SVGID_13_" x="161.4" y="-4" width="113.5" height="17.1"/>
												</defs>
												<clipPath id="SVGID_14_">
													<use xlink:href="#SVGID_13_"  overflow="visible"/>
												</clipPath>
												<path clip-path="url(#SVGID_14_)" fill="#271F10" d="M238.6,9.8h3V0.6c-1.1,0.2-2,0.5-3,0.8V9.8 M247.5-0.4v6.6
													l-3.2-6.1c-0.9,0.2-1.8,0.4-2.7,0.6l5.1,9.3h3.8V-0.7C249.4-0.7,248.5-0.6,247.5-0.4z"/>
											</g>
										</g>
									</g>
								</g>
							</g>
						</g>
					</g>
				</g>
			</g>
			<g>
				<g>
					<g>
						<g>
							<g>
								<g>
									<g>
										<g>
											<g>
												<defs>
													<rect id="SVGID_15_" x="161.4" y="-4" width="113.5" height="17.1"/>
												</defs>
												<clipPath id="SVGID_16_">
													<use xlink:href="#SVGID_15_"  overflow="visible"/>
												</clipPath>
												<path clip-path="url(#SVGID_16_)" fill="#057DC1" d="M236.1,2.1c-0.1-0.7-0.2-1.3-0.4-1.8C235-1.7,233-4,229.3-4
													s-5.7,2.3-6.4,4.3c-0.6,1.7-0.5,4,0,5.5c0.2,0.8,0.7,1.5,1.2,2.1c0.8-0.5,1.6-1.1,2.5-1.6c-0.3-0.3-0.5-0.7-0.6-1.1
													c-0.6-1.5-0.6-3.3,0-4.5c0.6-1.3,1.6-2.1,3.3-2.1c1.6,0,2.6,0.9,3.3,2.1c0.3,0.7,0.5,1.5,0.4,2.3
													C234,2.9,235,2.5,236.1,2.1"/>
											</g>
										</g>
									</g>
								</g>
							</g>
						</g>
					</g>
				</g>
			</g>
			<g>
				<g>
					<g>
						<g>
							<g>
								<g>
									<g>
										<g>
											<g>
												<defs>
													<rect id="SVGID_17_" x="161.4" y="-4" width="113.5" height="17.1"/>
												</defs>
												<clipPath id="SVGID_18_">
													<use xlink:href="#SVGID_17_"  overflow="visible"/>
												</clipPath>
												<path clip-path="url(#SVGID_18_)" fill="#057DC1" d="M247.5-3.7v3.2c1-0.1,2-0.2,3-0.3v-2.9H247.5 M238.6-3.7v5
													c1-0.3,1.9-0.5,3-0.8l0,0l0,0l0,0c0.9-0.2,1.7-0.4,2.7-0.6l-1.9-3.7L238.6-3.7L238.6-3.7z"/>
											</g>
										</g>
									</g>
								</g>
							</g>
						</g>
					</g>
				</g>
			</g>
			<g>
				<g>
					<g>
						<g>
							<g>
								<g>
									<g>
										<g>
											<g>
												<defs>
													<rect id="SVGID_19_" x="161.4" y="-4" width="113.5" height="17.1"/>
												</defs>
												<clipPath id="SVGID_20_">
													<use xlink:href="#SVGID_19_"  overflow="visible"/>
												</clipPath>
												<path clip-path="url(#SVGID_20_)" fill="#057DC1" d="M253.8-3.7V-1c1,0,2-0.1,3-0.1h6v-2.6L253.8-3.7"/>
											</g>
										</g>
									</g>
								</g>
							</g>
						</g>
					</g>
				</g>
			</g>
			<g>
				<g>
					<g>
						<g>
							<g>
								<g>
									<g>
										<g>
											<g>
												<defs>
													<rect id="SVGID_21_" x="161.4" y="-4" width="113.5" height="17.1"/>
												</defs>
												<clipPath id="SVGID_22_">
													<use xlink:href="#SVGID_21_"  overflow="visible"/>
												</clipPath>
												<path clip-path="url(#SVGID_22_)" fill="#271F10" d="M256.8,7.2V4.1h5.1V1.5h-5.1v-2.6c-1.1,0-2,0-3,0.1V9.8h9.1V7.2
													H256.8"/>
											</g>
										</g>
									</g>
								</g>
							</g>
						</g>
					</g>
				</g>
			</g>
		</g>
		<line fill="none" stroke="#000000" stroke-miterlimit="10" x1="145.9" y1="-3" x2="145.9" y2="10.5"/>
	</g>
	<g>
		
			<rect x="69.3" y="45.5" transform="matrix(-0.7071 -0.7071 0.7071 -0.7071 121.118 142.1687)" fill="#22688E" width="41.4" height="1"/>
		
			<rect x="89.5" y="25.3" transform="matrix(-0.7071 -0.7071 0.7071 -0.7071 121.1182 142.1682)" fill="#22688E" width="1" height="41.4"/>
	</g>
	<g>
		
			<rect x="109.3" y="45.5" transform="matrix(-0.7071 -0.7071 0.7071 -0.7071 189.4002 170.4518)" fill="#22B9CD" width="41.4" height="1"/>
		
			<rect x="129.5" y="25.3" transform="matrix(-0.7071 -0.7071 0.7071 -0.7071 189.3998 170.4501)" fill="#22B9CD" width="1" height="41.4"/>
	</g>
	<polygon fill="#BCD0D8" points="190.7,46 175.7,31 175,31.7 189.3,46 175,60.3 175.7,61 	"/>
	<polygon fill="#FFFFFF" points="205.7,31 205,31.7 219.3,46 205,60.3 205.7,61 220.7,46 	"/>
	<polygon fill="#22688E" points="250.7,46 235.7,31 235,31.7 249.3,46 235,60.3 235.7,61 	"/>
	<polygon fill="#22B9CD" points="265.7,31 265,31.7 279.3,46 265,60.3 265.7,61 280.7,46 	"/>
	<g>
		<rect x="345" y="96" fill="none" width="160" height="100"/>
		<polygon fill="#22688E" points="437,146 419,156 419,136 		"/>
	</g>
	<g enable-background="new    ">
		<path d="M-18.5,452.8c-0.8-3.9-1.4-4.4-3.7-4.8v-0.6h10.6v0.6c-2.7,0.2-3,1-2.4,4l4.3,21.6h0.1l4.1-19c1-4.7,0.2-5.7-2.5-6.5v-0.6
			h7.9v0.6c-2.5,0.6-3.3,2-4.3,6.6l-5.6,25.7h-2.7l-4.5-20.8l-5.5,20.8h-2.6l-5.9-27.5c-0.7-3.5-1.4-4.3-3.8-4.8v-0.6h10.5v0.6
			c-2.4,0.2-2.6,1.3-2.1,4l4.4,21.7h0.1l4.5-16.4L-18.5,452.8z"/>
		<path d="M0.2,469.1h0.7c2.8,7,4.8,10.3,8,10.3s4.6-3,4.6-6c0-4.5-3.1-6.3-6.4-8c-3.4-1.8-6.6-3.8-6.6-8.7c0-6,3.6-9.8,8.3-9.8
			c1.9,0,3.8,0.6,5.1,1.4l1.1-1.7h0.6V457H15c-2.5-7-4.3-9.2-6.7-9.2c-2.2,0-4.3,1.9-4.3,5.6c0,4,2.9,5.7,6.1,7.4
			c3.5,1.9,6.7,4.2,6.7,9c0,4.9-2.4,10.5-8.4,10.5c-2,0-4.2-0.9-5.8-2l-1.9,2.2H0.2V469.1z"/>
		<path d="M18.4,474.3c0-2.1,1.4-3.7,3.1-3.7c1.5,0,2.6,1.2,2.6,3c0,1.5-1,2.8-2.7,3.4c0.4,1.3,1.7,2.3,3.1,2.3
			c2.3,0,3.6-1.7,3.6-5.6v-22.3c0-2-0.5-3.2-3.6-3.3v-0.6H36v0.6c-2.8,0.1-3.2,1.3-3.2,3.3V471c0,6.7-3.5,9.5-7.7,9.5
			C21.3,480.4,18.4,477.8,18.4,474.3z"/>
	</g>
	<g enable-background="new    ">
		<path fill="#777777" d="M47.1,471.2v-19.8c0-2-0.6-3.2-3.3-3.3v-0.6h11.1v0.6c-2.7,0.1-3.1,1.3-3.1,3.3v19.4c0,6,2.3,8.1,6,8.1
			c1.6,0,3.1-0.7,4-2c1.1-1.5,1.5-3.6,1.5-7.1v-15.3c0-4.1-0.7-5.8-4.1-6.5v-0.6h8.9v0.6c-3.2,0.7-3.7,2.4-3.7,6.5v15.7
			c0,6.3-2.1,10.2-8.1,10.2S47.1,477.3,47.1,471.2z"/>
		<path fill="#777777" d="M73.4,452.7L73.4,452.7v19.8c0,4.1,0.5,5.8,3.8,6.5v0.6h-8.6V479c3.1-0.7,3.7-2.4,3.7-6.5v-19.1
			c0-3.4-0.9-5.3-3.7-5.5v-0.6h7.3L88.3,471h0.1v-16.7c0-4.1-0.8-5.8-4.1-6.5v-0.6H93v0.6c-3.1,0.7-3.5,2.4-3.5,6.5v25.5h-1.7
			L73.4,452.7z"/>
		<path fill="#777777" d="M94.1,479.1c2.9-0.1,3.4-1.3,3.4-3.3v-24.4c0-2-0.5-3.2-3.4-3.3v-0.6h11.5v0.6c-2.9,0.1-3.4,1.3-3.4,3.3
			v24.4c0,2,0.6,3.2,3.4,3.3v0.6H94.1V479.1z"/>
		<path fill="#777777" d="M110.4,452.8c-0.9-3.5-1.5-4.3-4-4.9v-0.6h11.3v0.6c-3.1,0.2-3.5,1.2-2.8,4l5.4,22.3h0.1l5-20.1
			c1.1-4.3,0.7-5.4-2.4-6.2v-0.6h7.8v0.6c-2.3,0.6-3.1,1.8-4.4,6.6l-6.6,25.7h-2.6L110.4,452.8z"/>
		<path fill="#777777" d="M131.1,479.1c2.7-0.1,3.3-1.3,3.3-3.3v-24.4c0-2-0.6-3.2-3.3-3.3v-0.6h19.3l0.2,10h-0.7
			c-2.2-6.6-3.4-9.1-7.5-9.1h-3.3v14.3h1.2c2.5,0,3.8-0.8,4.9-6h0.7v12.9h-0.7c-1.1-5.1-2.3-6-4.9-6h-1.2v15.1h3.2
			c4.9,0,6.4-2.7,8.5-9.6h0.7l-0.1,10.5h-20.3L131.1,479.1L131.1,479.1z"/>
		<path fill="#777777" d="M162.1,475.7c0,2.1,0.5,3.2,3.2,3.3v0.6h-11.2V479c2.7-0.1,3.3-1.3,3.3-3.3v-24.4c0-2-0.6-3.2-3.3-3.3
			v-0.6H165c6.9,0,9.3,3.6,9.3,7.8c0,3.8-1.8,7.2-7,8.2v0.1c4.9,0.4,6.1,3.3,6.5,8.3l0.2,1.9c0.4,4.4,0.9,4.9,3.7,4.9v0.5
			c-1.2,0.4-2.6,0.6-3.7,0.6c-3.7,0-4.5-1.7-4.8-5.8l-0.3-4.5c-0.3-4.6-1.1-5.6-4.9-5.6h-1.9V475.7z M164.3,463.1
			c4.3,0,5.2-3.1,5.2-7.7c0-4.3-1.3-7-5.6-7H162v14.7H164.3z"/>
		<path fill="#777777" d="M178.7,469.1h0.7c2.8,7,4.8,10.3,8,10.3s4.6-3,4.6-6c0-4.5-3.1-6.3-6.4-8c-3.4-1.8-6.6-3.8-6.6-8.7
			c0-6,3.6-9.8,8.3-9.8c1.9,0,3.8,0.6,5.1,1.4l1.1-1.7h0.6V457h-0.7c-2.5-7-4.3-9.2-6.7-9.2c-2.2,0-4.3,1.9-4.3,5.6
			c0,4,2.9,5.7,6.1,7.4c3.5,1.9,6.7,4.2,6.7,9c0,4.9-2.4,10.5-8.4,10.5c-2,0-4.2-0.9-5.8-2l-1.8,2.2h-0.6L178.7,469.1L178.7,469.1z"
			/>
		<path fill="#777777" d="M197.7,479.1c2.9-0.1,3.4-1.3,3.4-3.3v-24.4c0-2-0.5-3.2-3.4-3.3v-0.6h11.5v0.6c-2.9,0.1-3.4,1.3-3.4,3.3
			v24.4c0,2,0.6,3.2,3.4,3.3v0.6h-11.5V479.1z"/>
		<path fill="#777777" d="M215.9,479.1c3-0.1,3.7-1.3,3.7-3.3v-27.4h-1c-2.4,0-4.2,2.7-6.5,9.4h-0.7l0.2-10.3h20.6l0.2,10.3h-0.7
			c-2.2-6.4-4-9.4-6.5-9.4h-1v27.4c0,2,0.8,3.2,3.7,3.3v0.6h-12.1v-0.6H215.9z"/>
		<path fill="#777777" d="M250.3,453.8c1.6-4,1.4-5.1-1.6-5.8v-0.6h7.8v0.6c-2.2,0.6-3.2,1.5-4.9,5.6l-4.8,11.8v10.4
			c0,2,0.6,3.2,3.4,3.3v0.6h-11.4v-0.6c2.9-0.1,3.4-1.3,3.4-3.3v-10.2l-5.6-13.9c-1.1-2.7-1.5-3.1-3.7-3.6v-0.6H244v0.6
			c-3.1,0.3-3.4,1.5-2.5,3.7l4.6,12.1L250.3,453.8z"/>
	</g>
	<g enable-background="new    ">
		<path d="M-23.9,510.8c-0.6-2.6-1-3-2.5-3.3v-0.4h7.2v0.4c-1.8,0.2-2,0.7-1.6,2.7l2.9,14.6h0.1l2.8-12.9c0.7-3.2,0.1-3.9-1.7-4.4
			v-0.4h5.4v0.4c-1.7,0.4-2.2,1.4-2.9,4.4l-3.8,17.4h-1.8l-3-14.1l-3.7,14.1h-1.8l-4-18.6c-0.5-2.4-0.9-2.9-2.6-3.3V507h7.1v0.4
			c-1.6,0.2-1.8,0.9-1.4,2.7l3,14.7h0.1l3-11.1L-23.9,510.8z"/>
		<path d="M-11.2,521.8h0.5c1.9,4.8,3.3,6.9,5.4,6.9c2.2,0,3.1-2,3.1-4.1c0-3.1-2.1-4.3-4.3-5.4c-2.3-1.2-4.4-2.6-4.4-5.9
			c0-4.1,2.4-6.6,5.6-6.6c1.3,0,2.6,0.4,3.4,1l0.8-1.2h0.4v7h-0.5c-1.7-4.7-2.9-6.2-4.5-6.2c-1.5,0-2.9,1.3-2.9,3.8
			c0,2.7,2,3.8,4.1,5c2.4,1.3,4.5,2.8,4.5,6.1s-1.6,7.1-5.7,7.1c-1.3,0-2.8-0.6-3.9-1.4l-1.3,1.5h-0.4v-7.6L-11.2,521.8L-11.2,521.8
			z"/>
		<path d="M1.1,525.3c0-1.4,0.9-2.5,2.1-2.5c1,0,1.8,0.8,1.8,2c0,1-0.7,1.9-1.8,2.3c0.3,0.9,1.2,1.5,2.1,1.5c1.5,0,2.4-1.1,2.4-3.8
			v-15.1c0-1.3-0.3-2.2-2.4-2.3V507H13v0.4c-1.9,0.1-2.2,0.9-2.2,2.3V523c0,4.5-2.4,6.4-5.2,6.4C3.1,529.4,1.1,527.7,1.1,525.3z"/>
	</g>
	<g enable-background="new    ">
		<path fill="#777777" d="M20.5,523.2v-13.4c0-1.3-0.4-2.2-2.3-2.3v-0.4h7.5v0.4c-1.8,0.1-2.1,0.9-2.1,2.3v13.1c0,4.1,1.5,5.5,4,5.5
			c1.1,0,2.1-0.5,2.7-1.3c0.7-1,1-2.4,1-4.8V512c0-2.8-0.5-3.9-2.8-4.4v-0.4h6v0.4c-2.2,0.5-2.5,1.6-2.5,4.4v10.6
			c0,4.3-1.4,6.9-5.5,6.9C22.6,529.4,20.5,527.3,20.5,523.2z"/>
		<path fill="#777777" d="M38.3,510.7L38.3,510.7v13.4c0,2.8,0.3,3.9,2.6,4.4v0.4H35v-0.4c2.1-0.5,2.5-1.6,2.5-4.4v-12.9
			c0-2.3-0.6-3.6-2.5-3.7v-0.4h5l8.4,16.1h0.1v-11.3c0-2.8-0.5-3.9-2.8-4.4v-0.4h5.9v0.4c-2.1,0.5-2.4,1.6-2.4,4.4v17.2H48
			L38.3,510.7z"/>
		<path fill="#777777" d="M52.3,528.5c2-0.1,2.3-0.9,2.3-2.3v-16.5c0-1.3-0.3-2.2-2.3-2.3V507h7.8v0.4c-1.9,0.1-2.3,0.9-2.3,2.3
			v16.5c0,1.4,0.4,2.2,2.3,2.3v0.4h-7.8V528.5z"/>
		<path fill="#777777" d="M63.3,510.8c-0.6-2.4-1-2.9-2.7-3.3v-0.4h7.6v0.4c-2.1,0.2-2.3,0.8-1.9,2.7l3.7,15.1h0.1l3.4-13.6
			c0.7-2.9,0.5-3.7-1.6-4.2v-0.4h5.3v0.4c-1.6,0.4-2.1,1.2-3,4.5l-4.4,17.4H68L63.3,510.8z"/>
		<path fill="#777777" d="M77.3,528.5c1.8-0.1,2.3-0.9,2.3-2.3v-16.5c0-1.3-0.4-2.2-2.3-2.3V507h13.1l0.2,6.8h-0.5
			c-1.5-4.4-2.3-6.2-5.1-6.2h-2.3v9.7h0.8c1.7,0,2.6-0.6,3.3-4h0.5v8.7h-0.5c-0.7-3.5-1.6-4.1-3.3-4.1h-0.8v10.2h2.2
			c3.3,0,4.3-1.8,5.7-6.5h0.5l-0.1,7.1H77.3V528.5z"/>
		<path fill="#777777" d="M98.3,526.3c0,1.4,0.3,2.2,2.2,2.3v0.4h-7.6v-0.4c1.8-0.1,2.3-0.9,2.3-2.3v-16.5c0-1.3-0.4-2.2-2.3-2.3
			v-0.4h7.4c4.7,0,6.3,2.4,6.3,5.3c0,2.6-1.2,4.9-4.7,5.6v0.1c3.3,0.3,4.1,2.2,4.4,5.6l0.2,1.3c0.3,3,0.6,3.3,2.5,3.3v0.3
			c-0.8,0.3-1.8,0.4-2.5,0.4c-2.5,0-3.1-1.1-3.3-3.9L103,522c-0.2-3.1-0.8-3.8-3.3-3.8h-1.3L98.3,526.3L98.3,526.3z M99.8,517.7
			c2.9,0,3.5-2.1,3.5-5.2c0-2.9-0.9-4.8-3.8-4.8h-1.3v10H99.8z"/>
		<path fill="#777777" d="M109.5,521.8h0.5c1.9,4.8,3.3,6.9,5.4,6.9c2.2,0,3.1-2,3.1-4.1c0-3.1-2.1-4.3-4.3-5.4
			c-2.3-1.2-4.4-2.6-4.4-5.9c0-4.1,2.4-6.6,5.6-6.6c1.3,0,2.6,0.4,3.4,1l0.8-1.2h0.4v7h-0.5c-1.7-4.7-2.9-6.2-4.5-6.2
			c-1.5,0-2.9,1.3-2.9,3.8c0,2.7,2,3.8,4.1,5c2.4,1.3,4.5,2.8,4.5,6.1s-1.6,7.1-5.7,7.1c-1.3,0-2.8-0.6-3.9-1.4l-1.3,1.5h-0.4v-7.6
			L109.5,521.8L109.5,521.8z"/>
		<path fill="#777777" d="M122.4,528.5c2-0.1,2.3-0.9,2.3-2.3v-16.5c0-1.3-0.3-2.2-2.3-2.3V507h7.8v0.4c-1.9,0.1-2.3,0.9-2.3,2.3
			v16.5c0,1.4,0.4,2.2,2.3,2.3v0.4h-7.8C122.4,528.9,122.4,528.5,122.4,528.5z"/>
		<path fill="#777777" d="M134.7,528.5c2-0.1,2.5-0.9,2.5-2.3v-18.5h-0.7c-1.6,0-2.8,1.8-4.4,6.4h-0.5l0.2-7h13.9l0.2,7h-0.5
			c-1.5-4.3-2.7-6.4-4.4-6.4h-0.7v18.5c0,1.4,0.5,2.2,2.5,2.3v0.4h-8.2L134.7,528.5L134.7,528.5z"/>
		<path fill="#777777" d="M158,511.4c1.1-2.7,1-3.4-1.1-3.9v-0.4h5.3v0.4c-1.5,0.4-2.2,1-3.3,3.8l-3.2,8v7c0,1.4,0.4,2.2,2.3,2.3
			v0.4h-7.7v-0.4c2-0.1,2.3-0.9,2.3-2.3v-6.9l-3.8-9.4c-0.8-1.8-1-2.1-2.5-2.4v-0.4h7.5v0.4c-2.1,0.2-2.3,1-1.7,2.5l3.1,8.2
			L158,511.4z"/>
	</g>
	<g enable-background="new    ">
		<path d="M-22.9,551.1c-0.6-2.9-1.1-3.2-2.7-3.5v-0.4h7.8v0.4c-2,0.2-2.2,0.7-1.8,2.9l3.1,15.9h0.1l3-14c0.7-3.4,0.1-4.2-1.9-4.8
			v-0.4h5.8v0.4c-1.8,0.5-2.4,1.5-3.1,4.8l-4.1,18.9h-2L-22,556l-4,15.3h-1.9l-4.3-20.2c-0.5-2.6-1-3.1-2.8-3.5v-0.4h7.7v0.4
			c-1.7,0.2-1.9,1-1.6,2.9l3.2,16h0.1l3.3-12.1L-22.9,551.1z"/>
		<path d="M-9.1,563.1h0.5c2.1,5.2,3.5,7.6,5.9,7.6s3.4-2.2,3.4-4.4c0-3.3-2.3-4.7-4.7-5.9c-2.5-1.3-4.8-2.8-4.8-6.4
			c0-4.4,2.6-7.2,6.1-7.2c1.4,0,2.8,0.5,3.7,1.1l0.8-1.3h0.5v7.7H1.8c-1.8-5.1-3.2-6.8-4.9-6.8c-1.6,0-3.1,1.4-3.1,4.2
			c0,3,2.1,4.2,4.5,5.5c2.6,1.4,4.9,3.1,4.9,6.6c0,3.6-1.8,7.7-6.2,7.7c-1.5,0-3.1-0.6-4.3-1.5l-1.4,1.6h-0.5L-9.1,563.1L-9.1,563.1
			z"/>
		<path d="M4.3,567c0-1.6,1-2.7,2.2-2.7c1.1,0,1.9,0.9,1.9,2.2c0,1.1-0.7,2.1-2,2.5c0.3,1,1.3,1.7,2.3,1.7c1.7,0,2.6-1.2,2.6-4.1
			V550c0-1.5-0.4-2.3-2.6-2.4v-0.4h8.4v0.4c-2,0.1-2.4,1-2.4,2.4v14.4c0,4.9-2.6,7-5.6,7C6.4,571.4,4.3,569.5,4.3,567z"/>
	</g>
	<g enable-background="new    ">
		<path fill="#777777" d="M25.3,564.6V550c0-1.5-0.4-2.3-2.4-2.4v-0.4h8.2v0.4c-2,0.1-2.3,1-2.3,2.4v14.3c0,4.4,1.7,6,4.4,6
			c1.2,0,2.3-0.5,2.9-1.5c0.8-1.1,1.1-2.7,1.1-5.2v-11.2c0-3-0.5-4.3-3-4.8v-0.4h6.5v0.4c-2.4,0.5-2.7,1.7-2.7,4.8V564
			c0,4.6-1.6,7.5-6,7.5C27.7,571.4,25.3,569.1,25.3,564.6z"/>
		<path fill="#777777" d="M44.7,551.1L44.7,551.1v14.6c0,3,0.4,4.3,2.8,4.8v0.4h-6.3v-0.4c2.3-0.5,2.7-1.7,2.7-4.8v-14
			c0-2.5-0.7-3.9-2.7-4v-0.4h5.4l9.1,17.4h0.1v-12.3c0-3-0.6-4.3-3-4.8v-0.4h6.4v0.4c-2.2,0.5-2.6,1.7-2.6,4.8v18.7h-1.3L44.7,551.1
			z"/>
		<path fill="#777777" d="M59.9,570.4c2.1-0.1,2.5-1,2.5-2.4v-18c0-1.5-0.4-2.3-2.5-2.4v-0.4h8.4v0.4c-2.1,0.1-2.5,1-2.5,2.4v18
			c0,1.5,0.4,2.3,2.5,2.4v0.4h-8.4V570.4z"/>
		<path fill="#777777" d="M71.9,551.2c-0.6-2.6-1.1-3.2-2.9-3.6v-0.4h8.3v0.4c-2.3,0.2-2.6,0.9-2.1,2.9l4,16.4h0.1l3.7-14.8
			c0.8-3.2,0.5-4-1.7-4.6v-0.4H87v0.4c-1.7,0.5-2.3,1.3-3.2,4.9L79,571.3h-2L71.9,551.2z"/>
		<path fill="#777777" d="M87.1,570.4c2-0.1,2.4-1,2.4-2.4v-18c0-1.5-0.4-2.3-2.4-2.4v-0.4h14.2l0.2,7.3H101
			c-1.6-4.8-2.5-6.7-5.5-6.7H93v10.5h0.9c1.9,0,2.8-0.6,3.6-4.4H98v9.5h-0.5c-0.8-3.8-1.7-4.4-3.6-4.4H93v11.1h2.3
			c3.6,0,4.7-2,6.2-7h0.5l-0.1,7.7H87.1V570.4z"/>
		<path fill="#777777" d="M109.9,568c0,1.5,0.3,2.3,2.4,2.4v0.4H104v-0.4c2-0.1,2.4-1,2.4-2.4v-18c0-1.5-0.4-2.3-2.4-2.4v-0.4h8
			c5.1,0,6.9,2.6,6.9,5.7c0,2.8-1.3,5.3-5.1,6.1v0.1c3.6,0.3,4.5,2.4,4.8,6.1l0.2,1.4c0.3,3.2,0.7,3.6,2.7,3.6v0.4
			c-0.9,0.3-1.9,0.5-2.7,0.5c-2.7,0-3.3-1.2-3.5-4.3l-0.2-3.3c-0.2-3.4-0.8-4.1-3.6-4.1h-1.4v8.6L109.9,568L109.9,568z M111.5,558.7
			c3.1,0,3.8-2.3,3.8-5.6c0-3.1-1-5.2-4.1-5.2h-1.4v10.8H111.5z"/>
		<path fill="#777777" d="M122.1,563.1h0.5c2.1,5.2,3.5,7.6,5.9,7.6c2.4,0,3.4-2.2,3.4-4.4c0-3.3-2.3-4.7-4.7-5.9
			c-2.5-1.3-4.8-2.8-4.8-6.4c0-4.4,2.6-7.2,6.1-7.2c1.4,0,2.8,0.5,3.7,1.1l0.8-1.3h0.5v7.7H133c-1.8-5.1-3.2-6.8-4.9-6.8
			c-1.6,0-3.1,1.4-3.1,4.2c0,3,2.1,4.2,4.5,5.5c2.6,1.4,4.9,3.1,4.9,6.6c0,3.6-1.8,7.7-6.2,7.7c-1.5,0-3.1-0.6-4.3-1.5l-1.4,1.6H122
			L122.1,563.1L122.1,563.1L122.1,563.1z"/>
		<path fill="#777777" d="M136.1,570.4c2.1-0.1,2.5-1,2.5-2.4v-18c0-1.5-0.4-2.3-2.5-2.4v-0.4h8.4v0.4c-2.1,0.1-2.5,1-2.5,2.4v18
			c0,1.5,0.4,2.3,2.5,2.4v0.4h-8.4V570.4z"/>
		<path fill="#777777" d="M149.4,570.4c2.2-0.1,2.7-1,2.7-2.4v-20.1h-0.7c-1.7,0-3.1,2-4.8,6.9h-0.5l0.2-7.6h15.1l0.2,7.6h-0.5
			c-1.6-4.7-3-6.9-4.8-6.9h-0.7V568c0,1.5,0.6,2.3,2.7,2.4v0.4h-8.9V570.4z"/>
		<path fill="#777777" d="M174.8,551.8c1.2-2.9,1.1-3.7-1.2-4.3v-0.4h5.7v0.4c-1.6,0.4-2.4,1.1-3.6,4.1l-3.5,8.7v7.6
			c0,1.5,0.4,2.3,2.5,2.4v0.4h-8.4v-0.4c2.1-0.1,2.5-1,2.5-2.4v-7.5l-4.1-10.2c-0.8-2-1.1-2.3-2.7-2.7v-0.4h8.2v0.4
			c-2.2,0.2-2.5,1.1-1.8,2.7l3.4,8.9L174.8,551.8z"/>
	</g>
	<path fill="none" stroke="#BCD0D8" stroke-width="2" d="M0,211.9l16-15.8 M0.1,196l15.8,16"/>
	<rect x="46" y="195" fill="#BCD0D8" width="8" height="8"/>
	<rect x="56" y="195" fill="#BCD0D8" width="8" height="8"/>
	<rect x="46" y="205" fill="#BCD0D8" width="8" height="8"/>
	<rect x="56" y="205" fill="#BCD0D8" width="8" height="8"/>
	<path fill="#BCD0D8" d="M8,235c-10.5,0-19,8.5-19,19s8.5,19,19,19s19-8.5,19-19S18.5,235,8,235z"/>
	<path fill="#BCD0D8" d="M55,235c-10.5,0-19,8.5-19,19s8.5,19,19,19s19-8.5,19-19S65.5,235,55,235z"/>
	<path fill="none" stroke="#FFFFFF" stroke-width="2" d="M0,261.9l16-15.8 M0.1,246l15.8,16"/>
	<rect x="46" y="245" fill="#FFFFFF" width="8" height="8"/>
	<rect x="56" y="245" fill="#FFFFFF" width="8" height="8"/>
	<rect x="46" y="255" fill="#FFFFFF" width="8" height="8"/>
	<rect x="56" y="255" fill="#FFFFFF" width="8" height="8"/>
	<g>
		<g enable-background="new    ">
			<path d="M-22.8,600.6c-0.6-2.9-1-3.3-2.7-3.6v-0.4h7.9v0.4c-2,0.1-2.2,0.7-1.8,3l3.2,16h0.1l3-14.1c0.7-3.5,0.1-4.2-1.9-4.8v-0.4
				h5.9v0.4c-1.9,0.4-2.4,1.5-3.2,4.9l-4.1,19h-2l-3.3-15.4l-4.1,15.4h-1.9l-4.4-20.4c-0.5-2.6-1-3.2-2.8-3.6v-0.4h7.8v0.4
				c-1.8,0.1-1.9,1-1.6,3l3.3,16.1h0.1l3.3-12.2L-22.8,600.6z"/>
			<path d="M-8.9,612.7h0.5c2.1,5.2,3.6,7.6,5.9,7.6s3.4-2.2,3.4-4.4c0-3.3-2.3-4.7-4.7-5.9c-2.5-1.3-4.9-2.8-4.9-6.4
				c0-4.4,2.7-7.3,6.2-7.3c1.4,0,2.8,0.4,3.8,1L2,596h0.4v7.7H2c-1.9-5.2-3.2-6.8-5-6.8c-1.6,0-3.2,1.4-3.2,4.1c0,3,2.1,4.2,4.5,5.5
				c2.6,1.4,5,3.1,5,6.7c0,3.6-1.8,7.8-6.2,7.8c-1.5,0-3.1-0.7-4.3-1.5l-1.4,1.6H-9L-8.9,612.7L-8.9,612.7z"/>
			<path d="M4.6,616.5c0-1.6,1-2.7,2.3-2.7c1.1,0,1.9,0.9,1.9,2.2c0,1.1-0.7,2.1-2,2.5c0.3,1,1.3,1.7,2.3,1.7c1.7,0,2.7-1.3,2.7-4.1
				v-16.5c0-1.5-0.4-2.4-2.7-2.4v-0.4h8.5v0.4c-2.1,0.1-2.4,1-2.4,2.4v14.5c0,5-2.6,7-5.7,7C6.7,621,4.6,619.1,4.6,616.5z"/>
		</g>
		<g enable-background="new    ">
			<path fill="#777777" d="M25.8,614.2v-14.7c0-1.5-0.4-2.4-2.4-2.4v-0.4h8.2v0.4c-2,0.1-2.3,1-2.3,2.4v14.4c0,4.4,1.7,6,4.4,6
				c1.2,0,2.3-0.5,3-1.5c0.8-1.1,1.1-2.7,1.1-5.3v-11.3c0-3-0.5-4.3-3-4.8v-0.4h6.6v0.4c-2.4,0.5-2.7,1.8-2.7,4.8v11.6
				c0,4.7-1.6,7.6-6,7.6S25.8,618.7,25.8,614.2z"/>
			<path fill="#777777" d="M45.3,600.5L45.3,600.5v14.7c0,3,0.4,4.3,2.8,4.8v0.4h-6.4V620c2.3-0.5,2.7-1.8,2.7-4.8V601
				c0-2.5-0.7-3.9-2.7-4.1v-0.4h5.4l9.2,17.6h0.1v-12.4c0-3-0.6-4.3-3-4.8v-0.4h6.4v0.4c-2.3,0.5-2.6,1.8-2.6,4.8v18.9H56
				L45.3,600.5z"/>
			<path fill="#777777" d="M60.7,620.1c2.1-0.1,2.5-1,2.5-2.4v-18.1c0-1.5-0.4-2.4-2.5-2.4v-0.4h8.5v0.4c-2.1,0.1-2.5,1-2.5,2.4
				v18.1c0,1.5,0.4,2.4,2.5,2.4v0.4h-8.5C60.7,620.5,60.7,620.1,60.7,620.1z"/>
			<path fill="#777777" d="M72.7,600.6c-0.7-2.6-1.1-3.2-3-3.6v-0.4h8.4v0.4c-2.3,0.1-2.6,0.9-2.1,3l4,16.5h0.1l3.7-14.9
				c0.8-3.2,0.5-4-1.8-4.6v-0.4h5.8v0.4c-1.7,0.4-2.3,1.3-3.3,4.9l-4.9,19h-1.9L72.7,600.6z"/>
			<path fill="#777777" d="M88.1,620.1c2-0.1,2.4-1,2.4-2.4v-18.1c0-1.5-0.4-2.4-2.4-2.4v-0.4h14.3l0.1,7.4H102
				c-1.6-4.9-2.5-6.7-5.6-6.7H94v10.6h0.9c1.9,0,2.8-0.6,3.6-4.4H99v9.6h-0.5c-0.8-3.8-1.7-4.4-3.6-4.4H94v11.2h2.4
				c3.6,0,4.7-2,6.3-7.1h0.5l-0.1,7.8h-15L88.1,620.1L88.1,620.1z"/>
			<path fill="#777777" d="M111.1,617.6c0,1.6,0.4,2.4,2.4,2.4v0.4h-8.3V620c2-0.1,2.4-1,2.4-2.4v-18.1c0-1.5-0.4-2.4-2.4-2.4v-0.4
				h8.1c5.1,0,6.9,2.7,6.9,5.8c0,2.8-1.3,5.3-5.2,6.1v0.1c3.6,0.3,4.5,2.4,4.8,6.2l0.1,1.4c0.3,3.3,0.7,3.6,2.7,3.6v0.4
				c-0.9,0.3-1.9,0.4-2.7,0.4c-2.7,0-3.3-1.3-3.6-4.3l-0.2-3.3c-0.2-3.4-0.8-4.1-3.6-4.1h-1.4C111.1,609,111.1,617.6,111.1,617.6z
				 M112.7,608.2c3.2,0,3.9-2.3,3.9-5.7c0-3.2-1-5.2-4.1-5.2H111v10.9H112.7z"/>
			<path fill="#777777" d="M123.4,612.7h0.5c2.1,5.2,3.6,7.6,5.9,7.6c2.4,0,3.4-2.2,3.4-4.4c0-3.3-2.3-4.7-4.7-5.9
				c-2.5-1.3-4.9-2.8-4.9-6.4c0-4.4,2.7-7.3,6.2-7.3c1.4,0,2.8,0.4,3.8,1l0.8-1.3h0.4v7.7h-0.5c-1.9-5.2-3.2-6.8-5-6.8
				c-1.6,0-3.2,1.4-3.2,4.1c0,3,2.1,4.2,4.5,5.5c2.6,1.4,5,3.1,5,6.7c0,3.6-1.8,7.8-6.2,7.8c-1.5,0-3.1-0.7-4.3-1.5l-1.3,1.6h-0.4
				V612.7L123.4,612.7z"/>
			<path fill="#777777" d="M137.4,620.1c2.1-0.1,2.5-1,2.5-2.4v-18.1c0-1.5-0.4-2.4-2.5-2.4v-0.4h8.5v0.4c-2.1,0.1-2.5,1-2.5,2.4
				v18.1c0,1.5,0.4,2.4,2.5,2.4v0.4h-8.5V620.1z"/>
			<path fill="#777777" d="M150.9,620.1c2.2-0.1,2.7-1,2.7-2.4v-20.3h-0.7c-1.8,0-3.1,2-4.8,7h-0.5l0.1-7.6H163l0.1,7.6h-0.5
				c-1.6-4.7-3-7-4.8-7h-0.7v20.3c0,1.5,0.6,2.4,2.7,2.4v0.4h-9L150.9,620.1L150.9,620.1z"/>
			<path fill="#777777" d="M176.4,601.3c1.2-3,1-3.8-1.2-4.3v-0.4h5.8v0.4c-1.6,0.4-2.4,1.1-3.6,4.1l-3.6,8.7v7.7
				c0,1.5,0.4,2.4,2.5,2.4v0.4h-8.4v-0.4c2.1-0.1,2.5-1,2.5-2.4v-7.6l-4.1-10.3c-0.8-2-1.1-2.3-2.7-2.7v-0.4h8.2v0.4
				c-2.3,0.2-2.5,1.1-1.9,2.7l3.4,9L176.4,601.3z"/>
		</g>
	</g>
	<text transform="matrix(1 0 0 1 25.6618 641.6748)" fill="#777777" font-family="'Whitney-Book'" font-size="16">PROFESSORS</text>
	<g>
		<g enable-background="new    ">
			<path d="M-22.8,670.6c-0.6-2.9-1-3.3-2.7-3.6v-0.4h7.9v0.4c-2,0.1-2.2,0.7-1.8,3l3.2,16h0.1l3-14.1c0.7-3.5,0.1-4.2-1.9-4.8v-0.4
				h5.9v0.4c-1.9,0.4-2.4,1.5-3.2,4.9l-4.1,19h-2l-3.3-15.4l-4.1,15.4h-1.9l-4.4-20.4c-0.5-2.6-1-3.2-2.8-3.6v-0.4h7.8v0.4
				c-1.8,0.1-1.9,1-1.6,3l3.3,16.1h0.1l3.3-12.2L-22.8,670.6z"/>
			<path d="M-8.9,682.7h0.5c2.1,5.2,3.6,7.6,5.9,7.6s3.4-2.2,3.4-4.4c0-3.3-2.3-4.7-4.7-5.9c-2.5-1.3-4.9-2.8-4.9-6.4
				c0-4.4,2.7-7.3,6.2-7.3c1.4,0,2.8,0.4,3.8,1L2,666h0.4v7.7H2c-1.9-5.2-3.2-6.8-5-6.8c-1.6,0-3.2,1.4-3.2,4.1c0,3,2.1,4.2,4.5,5.5
				c2.6,1.4,5,3.1,5,6.7c0,3.6-1.8,7.8-6.2,7.8c-1.5,0-3.1-0.7-4.3-1.5l-1.4,1.6H-9L-8.9,682.7L-8.9,682.7z"/>
			<path d="M4.6,686.5c0-1.6,1-2.7,2.3-2.7c1.1,0,1.9,0.9,1.9,2.2c0,1.1-0.7,2.1-2,2.5c0.3,1,1.3,1.7,2.3,1.7c1.7,0,2.7-1.3,2.7-4.1
				v-16.5c0-1.5-0.4-2.4-2.7-2.4v-0.4h8.5v0.4c-2.1,0.1-2.4,1-2.4,2.4v14.5c0,5-2.6,7-5.7,7C6.7,691,4.6,689.1,4.6,686.5z"/>
		</g>
		<g enable-background="new    ">
			<path fill="#777777" d="M25.8,684.2v-14.7c0-1.5-0.4-2.4-2.4-2.4v-0.4h8.2v0.4c-2,0.1-2.3,1-2.3,2.4v14.4c0,4.4,1.7,6,4.4,6
				c1.2,0,2.3-0.5,3-1.5c0.8-1.1,1.1-2.7,1.1-5.3v-11.3c0-3-0.5-4.3-3-4.8v-0.4h6.6v0.4c-2.4,0.5-2.7,1.8-2.7,4.8v11.6
				c0,4.7-1.6,7.6-6,7.6S25.8,688.7,25.8,684.2z"/>
			<path fill="#777777" d="M45.3,670.5L45.3,670.5v14.7c0,3,0.4,4.3,2.8,4.8v0.4h-6.4V690c2.3-0.5,2.7-1.8,2.7-4.8V671
				c0-2.5-0.7-3.9-2.7-4.1v-0.4h5.4l9.2,17.6h0.1v-12.4c0-3-0.6-4.3-3-4.8v-0.4h6.4v0.4c-2.3,0.5-2.6,1.8-2.6,4.8v18.9H56
				L45.3,670.5z"/>
			<path fill="#777777" d="M60.7,690.1c2.1-0.1,2.5-1,2.5-2.4v-18.1c0-1.5-0.4-2.4-2.5-2.4v-0.4h8.5v0.4c-2.1,0.1-2.5,1-2.5,2.4
				v18.1c0,1.5,0.4,2.4,2.5,2.4v0.4h-8.5C60.7,690.5,60.7,690.1,60.7,690.1z"/>
			<path fill="#777777" d="M72.7,670.6c-0.7-2.6-1.1-3.2-3-3.6v-0.4h8.4v0.4c-2.3,0.1-2.6,0.9-2.1,3l4,16.5h0.1l3.7-14.9
				c0.8-3.2,0.5-4-1.8-4.6v-0.4h5.8v0.4c-1.7,0.4-2.3,1.3-3.3,4.9l-4.9,19h-1.9L72.7,670.6z"/>
			<path fill="#777777" d="M88.1,690.1c2-0.1,2.4-1,2.4-2.4v-18.1c0-1.5-0.4-2.4-2.4-2.4v-0.4h14.3l0.1,7.4H102
				c-1.6-4.9-2.5-6.7-5.6-6.7H94v10.6h0.9c1.9,0,2.8-0.6,3.6-4.4H99v9.6h-0.5c-0.8-3.8-1.7-4.4-3.6-4.4H94v11.2h2.4
				c3.6,0,4.7-2,6.3-7.1h0.5l-0.1,7.8h-15L88.1,690.1L88.1,690.1z"/>
			<path fill="#777777" d="M111.1,687.6c0,1.6,0.4,2.4,2.4,2.4v0.4h-8.3V690c2-0.1,2.4-1,2.4-2.4v-18.1c0-1.5-0.4-2.4-2.4-2.4v-0.4
				h8.1c5.1,0,6.9,2.7,6.9,5.8c0,2.8-1.3,5.3-5.2,6.1v0.1c3.6,0.3,4.5,2.4,4.8,6.2l0.1,1.4c0.3,3.3,0.7,3.6,2.7,3.6v0.4
				c-0.9,0.3-1.9,0.4-2.7,0.4c-2.7,0-3.3-1.3-3.6-4.3l-0.2-3.3c-0.2-3.4-0.8-4.1-3.6-4.1h-1.4C111.1,679,111.1,687.6,111.1,687.6z
				 M112.7,678.2c3.2,0,3.9-2.3,3.9-5.7c0-3.2-1-5.2-4.1-5.2H111v10.9H112.7z"/>
			<path fill="#777777" d="M123.4,682.7h0.5c2.1,5.2,3.6,7.6,5.9,7.6c2.4,0,3.4-2.2,3.4-4.4c0-3.3-2.3-4.7-4.7-5.9
				c-2.5-1.3-4.9-2.8-4.9-6.4c0-4.4,2.7-7.3,6.2-7.3c1.4,0,2.8,0.4,3.8,1l0.8-1.3h0.4v7.7h-0.5c-1.9-5.2-3.2-6.8-5-6.8
				c-1.6,0-3.2,1.4-3.2,4.1c0,3,2.1,4.2,4.5,5.5c2.6,1.4,5,3.1,5,6.7c0,3.6-1.8,7.8-6.2,7.8c-1.5,0-3.1-0.7-4.3-1.5l-1.3,1.6h-0.4
				V682.7L123.4,682.7z"/>
			<path fill="#777777" d="M137.4,690.1c2.1-0.1,2.5-1,2.5-2.4v-18.1c0-1.5-0.4-2.4-2.5-2.4v-0.4h8.5v0.4c-2.1,0.1-2.5,1-2.5,2.4
				v18.1c0,1.5,0.4,2.4,2.5,2.4v0.4h-8.5V690.1z"/>
			<path fill="#777777" d="M150.9,690.1c2.2-0.1,2.7-1,2.7-2.4v-20.3h-0.7c-1.8,0-3.1,2-4.8,7h-0.5l0.1-7.6H163l0.1,7.6h-0.5
				c-1.6-4.7-3-7-4.8-7h-0.7v20.3c0,1.5,0.6,2.4,2.7,2.4v0.4h-9L150.9,690.1L150.9,690.1z"/>
			<path fill="#777777" d="M176.4,671.3c1.2-3,1-3.8-1.2-4.3v-0.4h5.8v0.4c-1.6,0.4-2.4,1.1-3.6,4.1l-3.6,8.7v7.7
				c0,1.5,0.4,2.4,2.5,2.4v0.4h-8.4v-0.4c2.1-0.1,2.5-1,2.5-2.4v-7.6l-4.1-10.3c-0.8-2-1.1-2.3-2.7-2.7v-0.4h8.2v0.4
				c-2.3,0.2-2.5,1.1-1.9,2.7l3.4,9L176.4,671.3z"/>
		</g>
	</g>
	<g>
		<text transform="matrix(1 0 0 1 33.2136 711.6748)" fill="#777777" font-family="'Whitney-Book'" font-size="16">STUDENTS</text>
	</g>
	<path fill="#878787" d="M120,206c0,5.5-4.5,10-10,10c-5.5,0-10-4.5-10-10c0-5.5,4.5-10,10-10C115.5,196,120,200.5,120,206"/>
	<path fill="#878787" d="M151,206c0,5.5-4.5,10-10,10c-5.5,0-10-4.5-10-10c0-5.5,4.5-10,10-10C146.5,196,151,200.5,151,206"/>
	<path fill="#878787" d="M181,206c0,5.5-4.5,10-10,10c-5.5,0-10-4.5-10-10c0-5.5,4.5-10,10-10C176.5,196,181,200.5,181,206"/>
	<path fill="#878787" d="M212,206c0,5.5-4.5,10-10,10c-5.5,0-10-4.5-10-10c0-5.5,4.5-10,10-10C207.5,196,212,200.5,212,206"/>
	<path fill="#FFFFFF" d="M111.3,203.5v-1.1c0-0.2,0-0.3,0-0.4s0.1-0.2,0.1-0.3c0.1-0.1,0.1-0.1,0.3-0.2c0.1,0,0.3-0.1,0.5-0.1h1.1
		v-2.2h-1.8c-1,0-1.8,0.2-2.2,0.7c-0.4,0.5-0.7,1.2-0.7,2.2v1.3h-1.3v2.2h1.3v6.4h2.7v-6.4h1.8l0.2-2.2H111.3z"/>
	<rect x="167" y="203.8" fill="#FFFFFF" width="2" height="5.9"/>
	<path fill="#FFFFFF" d="M175.4,204.3c-0.4-0.5-1-0.7-1.6-0.7c-0.2,0-0.5,0-0.7,0.1c-0.2,0.1-0.4,0.1-0.5,0.3
		c-0.1,0.1-0.3,0.2-0.3,0.3c-0.1,0.1-0.2,0.2-0.2,0.3v-0.8h-2l0,0.3c0,0.2,0,0.8,0,1.8s0,2.3,0,3.9h2v-3.3c0-0.2,0-0.4,0.1-0.5
		c0.1-0.2,0.2-0.4,0.4-0.5c0.2-0.1,0.4-0.2,0.6-0.2c0.3,0,0.6,0.1,0.8,0.4s0.2,0.6,0.2,1v3.2h2v-3.4
		C176,205.4,175.8,204.8,175.4,204.3"/>
	<path fill="#FFFFFF" d="M168,200.9c-0.3,0-0.6,0.1-0.8,0.3c-0.2,0.2-0.3,0.4-0.3,0.7c0,0.3,0.1,0.5,0.3,0.7
		c0.2,0.2,0.5,0.3,0.8,0.3h0c0.3,0,0.6-0.1,0.8-0.3c0.2-0.2,0.3-0.4,0.3-0.7c0-0.3-0.1-0.5-0.3-0.7C168.6,201,168.3,200.9,168,200.9
		"/>
	<path fill="#FFFFFF" d="M147,202.9c-0.4,0.2-0.9,0.3-1.3,0.4c0.5-0.3,0.8-0.7,1-1.3c-0.5,0.3-0.9,0.5-1.5,0.6
		c-0.5-0.5-1-0.7-1.7-0.7c-0.6,0-1.2,0.2-1.6,0.7c-0.4,0.4-0.7,1-0.7,1.6c0,0.2,0,0.3,0.1,0.5c-0.9,0-1.8-0.3-2.6-0.7
		c-0.8-0.4-1.5-1-2.1-1.7c-0.2,0.4-0.3,0.7-0.3,1.2c0,0.4,0.1,0.8,0.3,1.1c0.2,0.3,0.4,0.6,0.7,0.8c-0.4,0-0.7-0.1-1-0.3v0
		c0,0.6,0.2,1,0.5,1.5c0.3,0.4,0.8,0.7,1.3,0.8c-0.2,0.1-0.4,0.1-0.6,0.1c-0.1,0-0.3,0-0.4,0c0.1,0.5,0.4,0.8,0.8,1.1
		c0.4,0.3,0.8,0.4,1.3,0.5c-0.8,0.7-1.8,1-2.8,1c-0.2,0-0.4,0-0.6,0c1.1,0.7,2.2,1,3.5,1c0.8,0,1.6-0.1,2.3-0.4
		c0.7-0.3,1.3-0.6,1.8-1c0.5-0.4,0.9-0.9,1.3-1.5c0.4-0.6,0.6-1.2,0.8-1.8c0.2-0.6,0.3-1.2,0.3-1.8c0-0.1,0-0.2,0-0.3
		C146.3,203.8,146.7,203.4,147,202.9"/>
	<path fill="#FFFFFF" d="M208.3,205.2c0-0.3,0-0.6-0.1-1c0-0.4-0.1-0.8-0.2-1.1c-0.1-0.4-0.2-0.6-0.5-0.9c-0.3-0.2-0.6-0.4-0.9-0.4
		c-1.1-0.1-2.7-0.2-4.9-0.2c-2.2,0-3.8,0.1-4.9,0.2c-0.3,0-0.6,0.2-0.9,0.4c-0.3,0.2-0.4,0.5-0.5,0.9c-0.1,0.3-0.1,0.7-0.2,1.1
		c0,0.4-0.1,0.7-0.1,1c0,0.3,0,0.6,0,1.1c0,0.5,0,0.8,0,1.1c0,0.3,0,0.6,0.1,1c0,0.4,0.1,0.8,0.2,1.1c0.1,0.4,0.2,0.7,0.5,0.9
		c0.3,0.2,0.6,0.4,0.9,0.4c1.1,0.1,2.7,0.2,4.9,0.2c2.2,0,3.8-0.1,4.9-0.2c0.3,0,0.6-0.2,0.9-0.4c0.3-0.2,0.4-0.5,0.5-0.9
		c0.1-0.3,0.1-0.7,0.2-1.1c0-0.4,0.1-0.7,0.1-1c0-0.3,0-0.6,0-1.1C208.3,205.8,208.3,205.4,208.3,205.2 M204.4,206.7l-3.7,2.3
		c-0.1,0-0.2,0.1-0.2,0.1l-0.2-0.1c-0.2-0.1-0.2-0.2-0.2-0.4v-4.6c0-0.2,0.1-0.3,0.2-0.4c0.2-0.1,0.3-0.1,0.5,0l3.7,2.3
		c0.1,0.1,0.2,0.2,0.2,0.4C204.6,206.4,204.5,206.6,204.4,206.7"/>
	<rect x="196.5" y="101" fill="#BCD0D8" width="3.8" height="11.4"/>
	<path fill="#BCD0D8" d="M212.8,102.1c-0.8-0.9-1.9-1.3-3.2-1.3c-0.5,0-0.9,0.1-1.3,0.2c-0.4,0.1-0.7,0.3-1,0.5s-0.5,0.4-0.7,0.6
		c-0.2,0.2-0.3,0.4-0.4,0.6V101h-3.8l0,0.6c0,0.4,0,1.5,0,3.4s0,4.4,0,7.5h3.8v-6.4c0-0.4,0-0.7,0.1-0.9c0.2-0.4,0.4-0.7,0.7-1
		c0.3-0.3,0.7-0.4,1.2-0.4c0.7,0,1.1,0.2,1.5,0.7c0.3,0.5,0.5,1.1,0.5,1.9v6.1h3.8v-6.5C214,104.2,213.6,103,212.8,102.1"/>
	<path fill="#BCD0D8" d="M198.5,95.5c-0.6,0-1.2,0.2-1.6,0.6c-0.4,0.4-0.6,0.8-0.6,1.4c0,0.6,0.2,1,0.6,1.4c0.4,0.4,0.9,0.6,1.5,0.6
		h0c0.6,0,1.2-0.2,1.6-0.6c0.4-0.4,0.6-0.8,0.6-1.4c0-0.6-0.2-1-0.6-1.4C199.6,95.7,199.1,95.5,198.5,95.5"/>
	<path fill="#BCD0D8" d="M266.5,103.3c0-0.5,0-1.1-0.1-1.9c-0.1-0.8-0.2-1.4-0.3-2c-0.1-0.7-0.5-1.2-1-1.7s-1.1-0.7-1.7-0.8
		c-2-0.2-5.1-0.3-9.3-0.3c-4.1,0-7.2,0.1-9.3,0.3c-0.7,0.1-1.2,0.3-1.7,0.8c-0.5,0.5-0.8,1-0.9,1.7c-0.1,0.6-0.2,1.3-0.3,2
		c-0.1,0.8-0.1,1.4-0.1,1.9c0,0.5,0,1.2,0,2.1s0,1.6,0,2.1c0,0.5,0,1.1,0.1,1.9c0.1,0.8,0.2,1.4,0.3,2c0.1,0.7,0.5,1.2,1,1.7
		c0.5,0.5,1.1,0.7,1.7,0.8c2,0.2,5.1,0.3,9.3,0.3c4.1,0,7.2-0.1,9.3-0.3c0.7-0.1,1.2-0.3,1.7-0.8c0.5-0.5,0.8-1,1-1.7
		c0.1-0.6,0.2-1.3,0.3-2c0.1-0.8,0.1-1.4,0.1-1.9c0-0.5,0-1.2,0-2.1S266.5,103.8,266.5,103.3 M259,106.1l-7.1,4.4
		c-0.1,0.1-0.3,0.1-0.5,0.1l-0.4-0.1c-0.3-0.2-0.5-0.4-0.5-0.8v-8.8c0-0.3,0.2-0.6,0.5-0.8c0.3-0.2,0.6-0.2,0.9,0l7.1,4.4
		c0.3,0.2,0.4,0.4,0.4,0.7S259.3,105.9,259,106.1"/>
</g>
</svg>
