<svg xmlns="http://www.w3.org/2000/svg" width="633.8" height="358.3"><path d="M25.2 49.3c-6.7-30.3-8.2-35.5-18-38L0 9.3V2.1h91v7.2l-7.7 1.5c-16.4 3.6-14.9 20-10.3 42.1l40.6 201.5L143.4 94l-10.8-55c-4.1-19.5-5.7-25.7-15.9-28.3L110 9.3V2.1h94.1v7.2l-11.3 2.1c-17 3.1-14.4 21.6-10.3 41.6l39.1 201.5 38.6-190.7c7.2-39.6 3.6-49.3-11.8-52.4l-10.8-2.1V2.1h65.3v7.2l-7.2 2.6c-10.3 3.6-12.9 13.4-20 47.3L213 358.4h-13.4L151.3 125l-43.7 233.4h-17L25.2 49.3zm360.8 309c-29.8 0-40.1-20.6-49.9-20.6-5.7 0-12.3 1.5-17.5 18.5h-6.2V239h7.7c6.2 66.3 30.8 107.9 65.3 107.9 23.1 0 39.1-21.1 39.1-59.1 0-80.2-114.6-114.6-114.6-203.5 0-47.8 24.2-84.3 67.8-84.3 28.3 0 33.9 18.5 45.7 18.5 6.7 0 11.3-5.1 13.9-16.4h6.2v117.2h-7.7c-6.2-59.1-21.6-107.9-58.6-107.9-25.7 0-30.3 25.7-30.3 43.2 0 76.6 114.6 102.8 114.6 209.7.1 54.4-29.7 94-75.5 94zm222.6-83.8c0 55-27.8 83.8-70.4 83.8-38.6 0-61.2-31.4-60.7-65.8.5-26.7 20-40.1 36-38 11.3 1.5 22.6 9.8 21.1 27.8-1.5 25.7-29.3 24.7-30.3 40.6-1 9.8 11.8 24.2 28.3 24.2 28.8 0 28.8-36.5 28.8-64.3V33.4c0-14.4-4.6-18.5-15.9-21.1l-12.8-3.1V2.1H634v7.2l-11.3 3.1c-10.3 2.6-13.9 7.2-13.9 21.6l-.2 240.5z" fill="#fff"/></svg>